<svg id="eDWufHqlb0N1" xmlns="http://www.w3.org/2000/svg" xmlns:xlink="http://www.w3.org/1999/xlink" viewBox="0 0 260 280" shape-rendering="geometricPrecision" text-rendering="geometricPrecision"><g transform="matrix(.133694 0 0-.265844-43.093666 539.433288)"><path d="M334,1939c-4-6,33-48,87-99c80-74,92-89,81-102-11-14-8-17,23-22c36-7,76-38,198-153l68-64-68-63c-131-121-142-129-157-117-10,9-17,2-30-31-13-31-45-68-112-128-52-47-93-89-91-94c8-25,33-10,123,73c61,57,109,93,128,97c43,9,49,14,35,30-7,9-8,18-3,23c93,78,234,218,238,236c10,40,23,29,41-32c17-59,39-93,60-93s43,34,60,93c9,31,20,57,25,57s18-29,30-65c37-110,85-107,117,7c9,32,21,57,27,55s18-31,28-65c33-110,80-106,117,8c12,40,26,68,31,64c4-5,15-35,24-66c15-53,37-88,55-88c21,0,44,32,59,84c10,33,23,61,28,63c6,2,19-23,28-55c16-57,40-92,64-92c17,0,40,39,57,98c17,56,31,66,41,28c3-14,58-73,122-132c111-103,137-134,112-134-23,0,1-18,33-24c23-4,63-34,131-96c92-85,115-98,123-74c2,5-39,48-91,94-67,61-99,97-112,128-13,33-20,40-30,31-15-12-31,0-156,117l-67,63l62,59c123,117,166,151,202,158c30,5,34,9,23,22s1,28,81,102c83,77,104,110,71,110-4,0-50-38-101-85-78-72-94-83-102-70-7,14-13,8-31-29-14-31-54-75-126-140l-104-95-12,28c-6,15-19,31-29,34-32,13-54-12-75-84-12-39-25-68-30-63-4,5-15,34-24,65-32,114-82,114-117-1-11-39-25-68-29-65-5,3-16,31-25,63-36,124-82,122-120-6-9-29-20-52-25-52-4,0-14,17-20,38-22,71-33,93-52,103-29,16-55-13-74-83-9-32-20-61-24-63-5-3-18,26-29,65-22,70-44,96-74,84-16-6-40-57-52-111-11-53-22-47-45,22-21,63-41,95-61,95-12,0-49-37-49-50c0-21-19-8-116,81-67,62-106,106-121,137-12,26-22,41-22,35-2-27-31-10-115,67-49,44-92,80-96,80-5,0-12-5-16-11Z"/></g></svg>